<svg width="29" height="30" viewBox="0 0 29 30" fill="none" xmlns="http://www.w3.org/2000/svg">
<path d="M13.775 30C12.5667 30 11.5396 29.4853 10.6937 28.4559C9.84792 27.4265 9.425 26.1765 9.425 24.7059H12.325C12.325 25.2059 12.4642 25.6253 12.7426 25.9641C13.021 26.3029 13.3651 26.4718 13.775 26.4706C14.1858 26.4706 14.5304 26.3012 14.8088 25.9624C15.0872 25.6235 15.226 25.2047 15.225 24.7059C15.225 24.2059 15.0858 23.7865 14.8074 23.4476C14.529 23.1088 14.1849 22.94 13.775 22.9412H0V19.4118H13.775C14.9833 19.4118 16.0104 19.9265 16.8562 20.9559C17.7021 21.9853 18.125 23.2353 18.125 24.7059C18.125 26.1765 17.7021 27.4265 16.8562 28.4559C16.0104 29.4853 14.9833 30 13.775 30ZM0 12.3529V8.82353H19.575C20.2033 8.82353 20.7229 8.57353 21.1337 8.07353C21.5446 7.57353 21.75 6.94118 21.75 6.17647C21.75 5.41177 21.5446 4.77941 21.1337 4.27941C20.7229 3.77941 20.2033 3.52941 19.575 3.52941C18.9467 3.52941 18.4271 3.77941 18.0162 4.27941C17.6054 4.77941 17.4 5.41177 17.4 6.17647H14.5C14.5 4.44118 14.9891 2.97765 15.9674 1.78588C16.9457 0.594119 18.1482 -0.00117473 19.575 1.74034e-06C21.0008 1.74034e-06 22.2034 0.595296 23.1826 1.78588C24.1618 2.97647 24.651 4.44 24.65 6.17647C24.65 7.91177 24.1609 9.37529 23.1826 10.5671C22.2043 11.7588 21.0018 12.3541 19.575 12.3529H0ZM23.925 26.4706V22.9412C24.5533 22.9412 25.0729 22.6912 25.4837 22.1912C25.8946 21.6912 26.1 21.0588 26.1 20.2941C26.1 19.5294 25.8946 18.8971 25.4837 18.3971C25.0729 17.8971 24.5533 17.6471 23.925 17.6471H0V14.1176H23.925C25.3508 14.1176 26.5534 14.7129 27.5326 15.9035C28.5118 17.0941 29.001 18.5576 29 20.2941C29 22.0294 28.5109 23.4929 27.5326 24.6847C26.5543 25.8765 25.3518 26.4718 23.925 26.4706Z" fill="white"/>
</svg>
