<svg width="69" height="53" viewBox="0 0 69 53" fill="none" xmlns="http://www.w3.org/2000/svg">
<path d="M0 36.5103C0 32.8403 1.11137 29.6132 3.36585 26.7658C5.62034 23.9184 8.50989 22.115 12.0663 21.324C12.7966 18.0653 14.289 15.2179 16.5117 12.7818C18.7345 10.3456 21.4335 8.60555 24.5453 7.56149C26.514 6.89709 28.5462 6.54907 30.6737 6.54907C33.2457 6.54907 35.7543 7.05528 38.1358 8.0677C39.0248 6.58071 40.0727 5.28355 41.2793 4.20786C42.486 3.13217 43.7243 2.27794 44.9945 1.70845C46.2646 1.13897 47.5347 0.696036 48.7414 0.411293C49.948 0.126551 51.1546 0 52.2977 0C53.5044 0 54.8063 0.15819 56.2034 0.506208L58.8072 1.29716C59.2517 1.48699 59.3787 1.70845 59.2517 1.9932L58.8072 3.89148C58.5849 4.87226 58.4896 5.78976 58.4896 6.61235C58.4896 7.59313 58.6484 8.60554 58.9659 9.61796C59.2835 10.6304 59.728 11.6112 60.3631 12.5919C60.9664 13.5727 61.8237 14.4269 62.9034 15.2179C63.983 16.0088 65.1896 16.61 66.555 17.0213L68.5237 17.7173C68.8412 17.8122 69 17.9704 69 18.2235C69 18.2868 68.9682 18.3501 68.9365 18.445L68.3649 20.5647C67.5076 23.9816 65.8882 26.6709 63.6019 28.6957C64.8721 30.9104 65.5706 33.2832 65.6659 35.7826C65.6977 35.9408 65.6977 36.1623 65.6977 36.5103C65.6977 39.3261 64.9991 41.952 63.5702 44.3565C62.173 46.761 60.2361 48.6593 57.8546 50.0514C55.4413 51.4434 52.8058 52.1711 49.9797 52.1711H15.6544C12.8283 52.1711 10.1928 51.4751 7.77957 50.0514C5.36631 48.6277 3.49287 46.7294 2.09572 44.3565C0.698574 41.9837 0 39.3577 0 36.5103ZM5.42982 36.5103C5.42982 39.3261 6.44593 41.7622 8.47814 43.8187C10.5104 45.8751 12.8919 46.9192 15.6544 46.9192H49.9797C52.8058 46.9192 55.2191 45.9068 57.2195 43.8503C59.22 41.7938 60.2361 39.3577 60.2361 36.5103C60.2361 33.7261 59.22 31.3533 57.1878 29.3601C55.1555 27.3669 52.7423 26.3545 49.948 26.3545H44.2959L43.9784 23.9816C43.6608 20.7862 42.3272 18.0337 39.9774 15.7874C37.6277 13.5411 34.8334 12.2756 31.6263 11.9908C31.5311 11.9908 31.3723 11.9908 31.15 11.9592C30.9277 11.9275 30.8007 11.9275 30.6737 11.9275C29.0543 11.9275 27.4349 12.2439 25.7837 12.845V12.7818C23.4657 13.6676 21.497 15.123 19.9411 17.1162C18.3534 19.1094 17.4008 21.3873 17.0833 23.9816L16.861 26.2596L14.7018 26.3545C12.0345 26.6709 9.81178 27.7782 8.03359 29.7081C6.25541 31.638 5.42982 33.8843 5.42982 36.5103ZM42.74 10.8518C46.1058 13.7309 48.2016 17.0845 48.9954 20.9127H50.0115C53.9489 20.9127 57.3148 22.1466 60.0773 24.646C61.1252 23.6652 61.919 22.5263 62.4906 21.2608C59.601 19.9003 57.3148 17.8122 55.6318 15.0281C53.9807 12.2439 53.1233 9.30158 53.1233 6.23269V5.47338C52.9646 5.44174 52.7105 5.44174 52.3612 5.44174C50.5196 5.4101 48.7096 5.85304 46.9632 6.83382C45.2168 7.78296 43.7879 9.11175 42.74 10.8518Z" fill="#FFFDFD"/>
</svg>
