<svg width="30" height="31" viewBox="0 0 30 31" fill="none" xmlns="http://www.w3.org/2000/svg">
<path d="M19.6875 24.8C20.4688 24.8 21.1331 24.5737 21.6806 24.1211C22.2281 23.6685 22.5012 23.1198 22.5 22.475C22.5 21.8292 22.2262 21.2799 21.6788 20.8274C21.1313 20.3748 20.4675 20.149 19.6875 20.15C18.9062 20.15 18.2419 20.3763 17.6944 20.8289C17.1469 21.2815 16.8738 21.8302 16.875 22.475C16.875 23.1208 17.1488 23.67 17.6962 24.1226C18.2437 24.5752 18.9075 24.801 19.6875 24.8ZM10.2188 24.7225L22.4062 14.6475L19.7812 12.4775L7.59375 22.5525L10.2188 24.7225ZM10.3125 17.05C11.0938 17.05 11.7581 16.8237 12.3056 16.3711C12.8531 15.9185 13.1263 15.3698 13.125 14.725C13.125 14.0792 12.8513 13.53 12.3038 13.0773C11.7563 12.6248 11.0925 12.399 10.3125 12.4C9.53125 12.4 8.86688 12.6263 8.31938 13.0789C7.77188 13.5315 7.49875 14.0802 7.5 14.725C7.5 15.3708 7.77375 15.92 8.32125 16.3726C8.86875 16.8252 9.5325 17.051 10.3125 17.05ZM15 31C10.7188 31 7.14813 29.7858 4.28813 27.3575C1.42813 24.9292 -0.00124918 21.9067 8.19135e-07 18.29C8.19135e-07 15.7067 1.2425 12.897 3.7275 9.8611C6.2125 6.82517 9.97 3.53813 15 0C20.0312 3.53917 23.7894 6.82672 26.2744 9.86265C28.7594 12.8986 30.0012 15.7077 30 18.29C30 21.9067 28.57 24.9292 25.71 27.3575C22.85 29.7858 19.28 31 15 31ZM15 27.9C18.25 27.9 20.9375 26.9891 23.0625 25.1673C25.1875 23.3456 26.25 21.0531 26.25 18.29C26.25 16.4042 25.3044 14.2729 23.4131 11.8962C21.5219 9.51958 18.7175 6.92333 15 4.1075C11.2812 6.92333 8.47688 9.51958 6.58688 11.8962C4.69688 14.2729 3.75125 16.4042 3.75 18.29C3.75 21.0542 4.8125 23.3471 6.9375 25.1689C9.0625 26.9907 11.75 27.901 15 27.9Z" fill="#FFFDFD"/>
</svg>
