<svg width="24" height="18" viewBox="0 0 24 18" fill="none" xmlns="http://www.w3.org/2000/svg">
<path d="M13 9C13 9.55 12.55 10 12 10C11.45 10 11 9.55 11 9C11 8.45 11.45 8 12 8C12.55 8 13 8.45 13 9ZM10 9L7 6V8H3V10H7V12L10 9ZM14 9L17 12V10H21V8H17V6L14 9ZM20.5 0.5L19.42 1.58C21.32 3.5 22.5 6.11 22.5 9C22.5 11.9 21.32 14.5 19.42 16.42L20.5 17.5C22.66 15.31 24 12.31 24 9C24 5.69 22.66 2.69 20.5 0.5ZM5.69 6C6.81 3.64 9.22 2 12 2C14.78 2 17.19 3.64 18.32 6H20.5C19.24 2.5 15.92 0 12 0C8.08 0 4.76 2.5 3.5 6H5.69ZM4.58 1.58L3.5 0.5C1.34 2.69 0 5.69 0 9C0 12.31 1.34 15.31 3.5 17.5L4.58 16.42C2.68 14.5 1.5 11.9 1.5 9C1.5 6.11 2.68 3.5 4.58 1.58ZM18.32 12C17.19 14.36 14.79 16 12 16C9.21 16 6.81 14.36 5.69 12H3.5C4.76 15.5 8.08 18 12 18C15.92 18 19.24 15.5 20.5 12H18.32Z" fill="#FFFAFA"/>
</svg>
