<svg width="35" height="35" viewBox="0 0 35 35" fill="none" xmlns="http://www.w3.org/2000/svg">
<path d="M0 17.115C0 16.7282 0.128927 16.3898 0.402895 16.1158C0.676864 15.858 1.0153 15.729 1.36984 15.729H4.65747C5.02814 15.729 5.33434 15.858 5.59219 16.1319C5.83393 16.4059 5.96285 16.7282 5.96285 17.115C5.96285 17.5018 5.85004 17.8241 5.6083 18.0981C5.36657 18.372 5.04425 18.501 4.67359 18.501H1.38596C1.0153 18.501 0.692981 18.372 0.419012 18.0981C0.145043 17.8241 0 17.5018 0 17.115ZM4.60912 28.2833C4.60912 27.9126 4.73805 27.5903 4.97979 27.3002L7.34881 24.9956C7.59055 24.7378 7.91287 24.625 8.29965 24.625C8.68643 24.625 9.00874 24.7539 9.2666 24.9956C9.52445 25.2374 9.65337 25.5436 9.65337 25.9142C9.65337 26.301 9.52445 26.6556 9.2666 26.9456L6.97815 29.2341C6.3174 29.7498 5.65665 29.7498 4.9959 29.2341C4.73805 28.9762 4.60912 28.6539 4.60912 28.2833ZM4.60912 5.97897C4.60912 5.6083 4.73805 5.28599 4.97979 4.9959C5.3021 4.72193 5.64054 4.59301 6.0112 4.59301C6.36575 4.59301 6.68806 4.72193 6.96203 4.97979L9.2666 7.34881C9.52445 7.59055 9.65337 7.91287 9.65337 8.29965C9.65337 8.68642 9.52445 9.00874 9.2666 9.26659C9.00874 9.52445 8.68643 9.65337 8.29965 9.65337C7.91287 9.65337 7.59055 9.52445 7.34881 9.26659L4.9959 6.96203C4.73805 6.70418 4.60912 6.36575 4.60912 5.97897ZM8.71866 17.115C8.71866 15.6162 9.08932 14.2142 9.84676 12.9249C10.6042 11.6356 11.6195 10.6042 12.9249 9.84676C14.2303 9.08932 15.6162 8.71866 17.115 8.71866C18.2431 8.71866 19.3229 8.94428 20.3704 9.39552C21.4018 9.84676 22.3043 10.443 23.0456 11.2005C23.8031 11.9579 24.3993 12.8443 24.8345 13.8757C25.2696 14.9071 25.4952 16.003 25.4952 17.1311C25.4952 18.646 25.1246 20.0481 24.3671 21.3373C23.6097 22.6266 22.5944 23.6419 21.3051 24.3993C20.0158 25.1568 18.6138 25.5275 17.0989 25.5275C15.584 25.5275 14.1819 25.1568 12.8927 24.3993C11.6034 23.6419 10.5881 22.6266 9.83065 21.3373C9.10544 20.032 8.71866 18.6299 8.71866 17.115ZM11.4583 17.115C11.4583 18.6943 12.0063 20.032 13.1183 21.144C14.2142 22.2559 15.5518 22.82 17.1311 22.82C18.7105 22.82 20.0481 22.2559 21.1601 21.144C22.2721 20.032 22.8361 18.6943 22.8361 17.115C22.8361 15.5679 22.2721 14.2464 21.1601 13.1344C20.0481 12.0385 18.7105 11.4906 17.1311 11.4906C15.5679 11.4906 14.2303 12.0385 13.1344 13.1344C12.0063 14.2464 11.4583 15.5679 11.4583 17.115ZM15.7452 29.6531C15.7452 29.2663 15.8741 28.944 16.1481 28.6862C16.422 28.4283 16.7443 28.2994 17.115 28.2994C17.5018 28.2994 17.8402 28.4283 18.0981 28.6862C18.3559 28.944 18.4848 29.2663 18.4848 29.6531V32.8601C18.4848 33.2469 18.3559 33.5854 18.0819 33.8593C17.808 34.1333 17.4857 34.2622 17.115 34.2622C16.7443 34.2622 16.4059 34.1333 16.1481 33.8593C15.8741 33.5854 15.7452 33.2469 15.7452 32.8601V29.6531ZM15.7452 4.67359V1.38596C15.7452 1.0153 15.8741 0.69298 16.1481 0.419012C16.422 0.145043 16.7443 0 17.1311 0C17.5179 0 17.8241 0.128927 18.0981 0.402895C18.372 0.676864 18.501 0.99918 18.501 1.36984V4.67359C18.501 5.04425 18.372 5.35045 18.0981 5.6083C17.8241 5.86616 17.5018 5.97897 17.1311 5.97897C16.7605 5.97897 16.422 5.85004 16.1642 5.6083C15.9063 5.36657 15.7452 5.04425 15.7452 4.67359ZM24.6411 25.9142C24.6411 25.5436 24.77 25.2374 25.0117 25.0117C25.2535 24.7539 25.5597 24.6411 25.9142 24.6411C26.301 24.6411 26.6233 24.77 26.8812 25.0117L29.2341 27.3163C29.4919 27.5903 29.6209 27.9287 29.6209 28.2994C29.6209 28.67 29.4919 28.9924 29.2341 29.2502C28.5895 29.7498 27.9448 29.7498 27.3002 29.2502L25.0117 26.9618C24.77 26.6717 24.6411 26.3332 24.6411 25.9142ZM24.6411 8.31576C24.6411 7.91287 24.77 7.59055 25.0117 7.36493L27.3002 4.9959C27.5742 4.73805 27.8965 4.60912 28.251 4.60912C28.6378 4.60912 28.9601 4.73805 29.218 5.01202C29.4919 5.28599 29.6209 5.6083 29.6209 5.97897C29.6209 6.38186 29.4919 6.7203 29.2341 6.97815L26.8812 9.28271C26.5911 9.54056 26.2688 9.66949 25.9142 9.66949C25.5436 9.66949 25.2535 9.54056 25.0117 9.28271C24.77 9.02486 24.6411 8.70254 24.6411 8.31576ZM28.2833 17.115C28.2833 16.7282 28.4122 16.4059 28.67 16.1158C28.9279 15.858 29.2341 15.729 29.5886 15.729H32.844C33.2147 15.729 33.537 15.8741 33.811 16.148C34.085 16.422 34.23 16.7443 34.23 17.115C34.23 17.4857 34.085 17.808 33.811 18.0819C33.537 18.3559 33.2147 18.4848 32.844 18.4848H29.5886C29.218 18.4848 28.8957 18.3559 28.6539 18.0819C28.4122 17.808 28.2833 17.5018 28.2833 17.115Z" fill="white"/>
</svg>
