<svg width="44" height="52" viewBox="0 0 44 52" fill="none" xmlns="http://www.w3.org/2000/svg">
<g clip-path="url(#clip0_13_159)">
<path d="M22 41.1666C22.4862 41.1666 22.9525 41.3949 23.2964 41.8012C23.6402 42.2076 23.8333 42.7587 23.8333 43.3333V45.5C23.8333 46.0746 23.6402 46.6257 23.2964 47.032C22.9525 47.4384 22.4862 47.6666 22 47.6666C21.5138 47.6666 21.0475 47.4384 20.7036 47.032C20.3598 46.6257 20.1667 46.0746 20.1667 45.5V43.3333C20.1667 42.7587 20.3598 42.2076 20.7036 41.8012C21.0475 41.3949 21.5138 41.1666 22 41.1666ZM33.6673 36.725L34.9635 38.2568C35.2975 38.6654 35.4822 39.2128 35.4781 39.7808C35.4739 40.3489 35.2811 40.8924 34.9412 41.2941C34.6013 41.6958 34.1414 41.9237 33.6607 41.9286C33.18 41.9335 32.7169 41.7152 32.3712 41.3205L31.075 39.7886C30.741 39.38 30.5563 38.8327 30.5604 38.2646C30.5646 37.6965 30.7574 37.1531 31.0973 36.7514C31.4373 36.3497 31.8971 36.1218 32.3778 36.1169C32.8585 36.1119 33.3216 36.3303 33.6673 36.725ZM10.3327 36.725C10.6626 36.3364 11.1053 36.1108 11.5709 36.094C12.0364 36.0772 12.49 36.2704 12.8393 36.6345C13.1887 36.9986 13.4077 37.5062 13.4519 38.0542C13.4961 38.6022 13.3621 39.1495 13.0772 39.585L12.925 39.7886L11.6288 41.3205C11.2989 41.7091 10.8562 41.9347 10.3906 41.9515C9.92506 41.9683 9.47153 41.775 9.12216 41.4109C8.77279 41.0469 8.55378 40.5393 8.50961 39.9913C8.46543 39.4433 8.59942 38.896 8.88434 38.4605L9.0365 38.2568L10.3327 36.725ZM22 13C24.9174 13 27.7153 14.3696 29.7782 16.8076C31.8411 19.2456 33 22.5522 33 26C33 29.4478 31.8411 32.7544 29.7782 35.1924C27.7153 37.6303 24.9174 39 22 39C19.0826 39 16.2847 37.6303 14.2218 35.1924C12.1589 32.7544 11 29.4478 11 26C11 22.5522 12.1589 19.2456 14.2218 16.8076C16.2847 14.3696 19.0826 13 22 13ZM22 17.3333C20.0551 17.3333 18.1898 18.2464 16.8146 19.8717C15.4393 21.497 14.6667 23.7014 14.6667 26C14.6667 28.2985 15.4393 30.5029 16.8146 32.1282C18.1898 33.7536 20.0551 34.6666 22 34.6666C23.9449 34.6666 25.8102 33.7536 27.1855 32.1282C28.5607 30.5029 29.3333 28.2985 29.3333 26C29.3333 23.7014 28.5607 21.497 27.1855 19.8717C25.8102 18.2464 23.9449 17.3333 22 17.3333ZM7.33334 23.8333C7.80062 23.8339 8.25006 24.0454 8.58985 24.4245C8.92963 24.8036 9.1341 25.3217 9.16149 25.873C9.18887 26.4243 9.0371 26.9671 8.73718 27.3906C8.43727 27.8141 8.01185 28.0863 7.54784 28.1515L7.33334 28.1666H5.5C5.03272 28.166 4.58328 27.9546 4.24349 27.5755C3.90371 27.1964 3.69924 26.6782 3.67185 26.127C3.64447 25.5757 3.79624 25.0328 4.09616 24.6093C4.39607 24.1859 4.82149 23.9137 5.2855 23.8485L5.5 23.8333H7.33334ZM38.5 23.8333C38.9862 23.8333 39.4525 24.0616 39.7964 24.4679C40.1402 24.8742 40.3333 25.4253 40.3333 26C40.3333 26.5746 40.1402 27.1257 39.7964 27.532C39.4525 27.9384 38.9862 28.1666 38.5 28.1666H36.6667C36.1804 28.1666 35.7141 27.9384 35.3703 27.532C35.0265 27.1257 34.8333 26.5746 34.8333 26C34.8333 25.4253 35.0265 24.8742 35.3703 24.4679C35.7141 24.0616 36.1804 23.8333 36.6667 23.8333H38.5ZM9.0365 10.6795C9.35219 10.3064 9.77221 10.0823 10.2178 10.0492C10.6633 10.0161 11.1038 10.1763 11.4565 10.4996L11.6288 10.6795L12.925 12.2113C13.2538 12.6012 13.4447 13.1244 13.4589 13.6746C13.4731 14.2249 13.3096 14.7609 13.0015 15.1737C12.6935 15.5866 12.264 15.8455 11.8003 15.8977C11.3366 15.9499 10.8735 15.7915 10.505 15.4548L10.3327 15.275L9.0365 13.7431C8.69281 13.3368 8.49973 12.7858 8.49973 12.2113C8.49973 11.6368 8.69281 11.0858 9.0365 10.6795ZM34.9635 10.6795C35.3072 11.0858 35.5003 11.6368 35.5003 12.2113C35.5003 12.7858 35.3072 13.3368 34.9635 13.7431L33.6673 15.275C33.4982 15.4819 33.2959 15.647 33.0722 15.7605C32.8486 15.8741 32.608 15.9339 32.3646 15.9364C32.1211 15.9389 31.8797 15.884 31.6544 15.7751C31.4291 15.6662 31.2244 15.5053 31.0523 15.3018C30.8801 15.0984 30.744 14.8565 30.6518 14.5902C30.5597 14.3239 30.5133 14.0386 30.5154 13.7509C30.5175 13.4633 30.5681 13.1789 30.6642 12.9146C30.7602 12.6503 30.8999 12.4112 31.075 12.2113L32.3712 10.6795C32.715 10.2733 33.1812 10.0451 33.6673 10.0451C34.1535 10.0451 34.6197 10.2733 34.9635 10.6795ZM22 4.33331C22.4862 4.33331 22.9525 4.56159 23.2964 4.96791C23.6402 5.37424 23.8333 5.92534 23.8333 6.49998V8.66665C23.8333 9.24128 23.6402 9.79238 23.2964 10.1987C22.9525 10.605 22.4862 10.8333 22 10.8333C21.5138 10.8333 21.0475 10.605 20.7036 10.1987C20.3598 9.79238 20.1667 9.24128 20.1667 8.66665V6.49998C20.1667 5.92534 20.3598 5.37424 20.7036 4.96791C21.0475 4.56159 21.5138 4.33331 22 4.33331Z" fill="white"/>
</g>
<defs>
<clipPath id="clip0_13_159">
<rect width="44" height="52" fill="white"/>
</clipPath>
</defs>
</svg>
