<svg width="38" height="33" viewBox="0 0 38 33" fill="none" xmlns="http://www.w3.org/2000/svg">
<path fill-rule="evenodd" clip-rule="evenodd" d="M13.226 3.00384C11.8748 2.96028 10.5313 3.28798 9.27683 3.96704C8.02241 4.6461 6.88334 5.66234 5.92881 6.95402C2.02373 12.2259 2.02373 20.7742 5.92881 26.0461C9.83389 31.318 16.166 31.318 20.0711 26.0461C21.0279 24.7575 21.7806 23.2197 22.2836 21.5262C22.7866 19.8328 23.0294 18.019 22.9972 16.195C22.9796 15.115 22.8665 14.0418 22.6602 12.9981C22.1161 13.7031 21.533 14.3512 20.9161 14.9367C19.5651 16.2179 18.1831 17.0468 16.93 17.4235C15.024 17.9945 13.716 17.4667 13 16.5001C12.2839 15.5334 11.8929 13.7676 12.3159 11.1945C12.595 9.50287 13.209 7.63713 14.157 5.81324C14.572 5.01403 15.051 4.22426 15.594 3.4588C14.821 3.18001 14.0259 3.02726 13.226 3.00384ZM18.6561 24.1372C19.8612 22.5159 20.6501 20.4162 20.9071 18.1457C17.361 20.9066 13.638 21.1793 11.5859 18.409C9.53389 15.6387 9.73589 10.6126 11.7809 5.82539C10.5319 6.08555 9.34627 6.74149 8.32121 7.73949C7.29615 8.73748 6.46082 10.0491 5.88364 11.567C5.30647 13.0848 5.00388 14.7657 5.00066 16.4718C4.99744 18.178 5.29368 19.8609 5.86512 21.3827C6.43656 22.9045 7.26693 24.2218 8.28821 25.2269C9.30949 26.2319 10.4926 26.896 11.7407 27.1647C12.9887 27.4335 14.2662 27.2992 15.4684 26.773C16.6706 26.2467 17.7623 25.3435 18.6561 24.1372Z" fill="#FFFCFC"/>
</svg>
