<svg width="25" height="22" viewBox="0 0 25 22" fill="none" xmlns="http://www.w3.org/2000/svg">
<path d="M12.5 17.6C13.9205 17.6 15.128 16.9581 16.1227 15.6743C17.1174 14.3904 17.6144 12.8324 17.6136 11C17.6136 9.16667 17.1163 7.60809 16.1216 6.32427C15.1269 5.04045 13.9197 4.39902 12.5 4.4C11.0795 4.4 9.87197 5.04191 8.87727 6.32573C7.88258 7.60956 7.38561 9.16764 7.38636 11C7.38636 12.8333 7.88371 14.3919 8.87841 15.6757C9.87311 16.9596 11.0803 17.601 12.5 17.6ZM12.5 14.96C11.6477 14.96 10.9231 14.5748 10.3261 13.8043C9.72917 13.0338 9.43106 12.099 9.43182 11C9.43182 9.9 9.7303 8.96476 10.3273 8.19427C10.9242 7.42378 11.6485 7.03902 12.5 7.04C13.3523 7.04 14.0769 7.42525 14.6739 8.19573C15.2708 8.96622 15.5689 9.90098 15.5682 11C15.5682 12.1 15.2701 13.0352 14.6739 13.8057C14.0777 14.5762 13.353 14.961 12.5 14.96ZM12.5 22C9.73485 22 7.21591 21.0036 4.94318 19.0109C2.67045 17.0182 1.02273 14.3479 0 11C1.02273 7.65111 2.67045 4.98031 4.94318 2.9876C7.21591 0.99489 9.73485 -0.000977058 12.5 7.19307e-07C15.2652 7.19307e-07 17.7841 0.996356 20.0568 2.98907C22.3295 4.98178 23.9773 7.65209 25 11C23.9773 14.3489 22.3295 17.0197 20.0568 19.0124C17.7841 21.0051 15.2652 22.001 12.5 22ZM12.5 19.0667C14.6402 19.0667 16.6053 18.3392 18.3955 16.8843C20.1856 15.4293 21.5538 13.4679 22.5 11C21.553 8.53111 20.1845 6.5692 18.3943 5.11427C16.6042 3.65933 14.6394 2.93236 12.5 2.93333C10.3598 2.93333 8.3947 3.6608 6.60455 5.11573C4.81439 6.57067 3.44621 8.53209 2.5 11C3.44697 13.4689 4.81553 15.4308 6.60568 16.8857C8.39583 18.3407 10.3606 19.0676 12.5 19.0667Z" fill="white"/>
</svg>
