<svg width="62" height="56" viewBox="0 0 62 56" fill="none" xmlns="http://www.w3.org/2000/svg">
<g clip-path="url(#clip0_35_61)">
<path d="M46.5 12.4444C45.3244 12.4448 44.1552 12.601 43.0297 12.908C43.0383 12.7524 43.0556 12.6015 43.0556 12.4444C43.0539 10.1847 42.1444 8.0024 40.496 6.30264C38.8475 4.60288 36.5721 3.50124 34.0923 3.20228C31.6125 2.90332 29.0969 3.42737 27.0126 4.67711C24.9283 5.92685 23.4169 7.81735 22.7592 9.99753C21.5458 9.55932 20.2512 9.33389 18.9444 9.3333C16.2039 9.3333 13.5756 10.3166 11.6377 12.067C9.6998 13.8173 8.61111 16.1913 8.61111 18.6666C8.61111 21.142 9.6998 23.516 11.6377 25.2663C13.5756 27.0166 16.2039 28 18.9444 28C21.2119 27.9986 23.4159 27.3235 25.2164 26.0787C27.0169 24.8339 28.314 23.0886 28.9075 21.112C30.1207 21.5507 31.4154 21.7766 32.7222 21.7777C33.3681 21.7777 33.9967 21.7171 34.6098 21.616C34.5099 22.176 34.4444 22.7469 34.4444 23.3333C34.4444 29.3455 39.8436 34.2222 46.5 34.2222C53.1564 34.2222 58.5556 29.3455 58.5556 23.3333C58.5556 20.4454 57.2854 17.6758 55.0246 15.6337C52.7637 13.5916 49.6973 12.4444 46.5 12.4444Z" fill="#CCD6DD"/>
<path d="M53.3889 34.2222C52.5846 34.2222 51.8217 34.3545 51.0828 34.5396C51.4548 33.7214 51.6667 32.8285 51.6667 31.8889C51.6667 30.0324 50.8502 28.2519 49.3967 26.9392C47.9433 25.6264 45.9721 24.8889 43.9167 24.8889C42.2342 24.8933 40.5999 25.3967 39.2649 26.3216C38.6599 24.1361 37.2638 22.1958 35.2984 20.8089C33.3329 19.4221 30.9108 18.6681 28.4167 18.6667C26.0958 18.6678 23.8327 19.3207 21.9409 20.535C20.0491 21.7494 18.6222 23.465 17.8577 25.4442C15.9633 24.9152 13.9648 24.7617 11.9987 24.9943C10.0326 25.2268 8.14528 25.84 6.46561 26.7918C4.78593 27.7436 3.35351 29.0117 2.26619 30.5094C1.17888 32.0071 0.462292 33.6992 0.165387 35.47C-0.131518 37.2408 -0.00174639 39.0486 0.545838 40.77C1.09342 42.4913 2.04591 44.0856 3.33825 45.444C4.63058 46.8023 6.23231 47.8927 8.034 48.6407C9.83569 49.3886 11.7949 49.7765 13.7778 49.7778H53.3889C58.1457 49.7778 62 46.2965 62 42C62 37.7036 58.1457 34.2222 53.3889 34.2222Z" fill="#E1E8ED"/>
</g>
<defs>
<clipPath id="clip0_35_61">
<rect width="62" height="56" fill="white"/>
</clipPath>
</defs>
</svg>
